<svg width="14" height="44" viewBox="0 0 14 44" fill="none" xmlns="http://www.w3.org/2000/svg">
<g id="globalnav_search_image__cbllq1gkias2_large.svg" clip-path="url(#clip0_0_367)">
<path id="Vector" d="M14.1988 27.3431L10.6988 23.8431C11.5805 22.7632 12.0136 21.386 11.9087 19.9958C11.8037 18.6057 11.1688 17.3091 10.135 16.3738C9.10117 15.4386 7.74757 14.9362 6.35393 14.9707C4.96028 15.0051 3.63312 15.5736 2.64674 16.5587C1.66035 17.5438 1.09013 18.8702 1.05393 20.2638C1.01773 21.6574 1.51831 23.0117 2.45223 24.0467C3.38614 25.0817 4.68199 25.7183 6.07197 25.825C7.46195 25.9318 8.8398 25.5004 9.92076 24.6201L13.4208 28.1201C13.4718 28.1712 13.5325 28.2117 13.5992 28.2393C13.666 28.267 13.7375 28.2812 13.8098 28.2812C13.882 28.2812 13.9535 28.267 14.0203 28.2393C14.087 28.2117 14.1477 28.1712 14.1988 28.1201C14.2498 28.069 14.2904 28.0083 14.318 27.9416C14.3457 27.8749 14.3599 27.8033 14.3599 27.7311C14.3599 27.6588 14.3457 27.5873 14.318 27.5206C14.2904 27.4538 14.2498 27.3932 14.1988 27.3421V27.3431ZM2.17776 20.4181C2.17796 19.5639 2.43143 18.729 2.90613 18.0188C3.38083 17.3087 4.05543 16.7553 4.84464 16.4286C5.63385 16.1018 6.50223 16.0164 7.33997 16.1832C8.1777 16.35 8.94718 16.7614 9.55111 17.3654C10.155 17.9695 10.5663 18.7391 10.7328 19.5769C10.8994 20.4146 10.8138 21.283 10.4869 22.0721C10.16 22.8613 9.6064 23.5357 8.89616 24.0103C8.18593 24.4848 7.35093 24.7381 6.49676 24.7381C5.35144 24.737 4.25335 24.2815 3.44358 23.4715C2.63381 22.6616 2.17855 21.5634 2.17776 20.4181Z" fill="white"/>
</g>
<defs>
<clipPath id="clip0_0_367">
<rect width="14" height="44" fill="white" transform="translate(0.21875)"/>
</clipPath>
</defs>
</svg>
